<?xml version="1.0" encoding="utf-8"?>
<!-- Generator: Adobe Illustrator 18.1.1, SVG Export Plug-In . SVG Version: 6.00 Build 0)  -->
<svg version="1.1" id="Layer_1" xmlns="http://www.w3.org/2000/svg" xmlns:xlink="http://www.w3.org/1999/xlink" x="0px" y="0px"
	 viewBox="-201 463 76 76" enable-background="new -201 463 76 76" xml:space="preserve">
<path fill="#00589F" d="M-182,502.5c0,1.4,2.1,2.5,3.5,2.5s2-1.1,2-2.5l0.5-14.5h-5L-182,502.5z M-149,506c-1,0-1.5-0.5-2-1.3
	c-0.5,0.8-2,1.3-3,1.3h-1c-1,0-1.7-0.5-2.2-1.3c-0.5,0.8-1.7,1.3-2.7,1.3h-1c-1,0-2.2-0.5-2.8-1.3c-0.1,0.1-0.2,0.2-0.3,0.3h0v11h15
	V506z M-166.3,506h-1c-1,0-2.2-0.5-2.8-1.3c-0.5,0.8-1.5,1.3-2.5,1.3h-1c-1,0-2-0.5-2.5-1.3c-0.5,0.8-1,1.3-2,1.3h-1
	c-0.8,0-1.5-0.3-2-0.8V521h2v-13h11v13h23v-16.2c-0.8,0.7-2,1.2-3,1.2v12h-17v-2l0,0v-10.3C-165.4,505.9-165.8,506-166.3,506z
	 M-183,521v-33v-3h40v3v33l0,2h-40V521z M-169.5,502.5c0,1.4,1.4,2.5,2.8,2.5c1.4,0,2.5-1.1,2.5-2.5l0.2-14.5h-5L-169.5,502.5z
	 M-156.8,502.5c0,1.4,0.9,2.5,2.2,2.5c1.4,0,3-1.1,3-2.5L-152,488h-5L-156.8,502.5z M-170,521v-11h-7v11H-170z M-160.7,513.4
	l-0.7-0.7l3.7-3.4l0.7,0.7L-160.7,513.4z M-154.4,512.4l-0.7-0.7l3.7-3.4l0.7,0.7L-154.4,512.4z M-171,514v3h-2v-3H-171z"/>
</svg>
