<?xml version="1.0" encoding="utf-8"?>
<!-- Generator: Adobe Illustrator 18.1.1, SVG Export Plug-In . SVG Version: 6.00 Build 0)  -->
<svg version="1.1" id="Layer_1" xmlns="http://www.w3.org/2000/svg" xmlns:xlink="http://www.w3.org/1999/xlink" x="0px" y="0px"
	 viewBox="-201 463 76 76" enable-background="new -201 463 76 76" xml:space="preserve">
<path fill="#00589F" d="M-173.3,507.3c2.2,0,4,1.8,4,4c0,2.2-1.8,4-4,4c-2.2,0-4-1.8-4-4C-177.2,509.1-175.5,507.3-173.3,507.3z
	 M-151.1,507.3c2.2,0,4,1.8,4,4s-1.8,4-4,4c-2.2,0-4-1.8-4-4S-153.3,507.3-151.1,507.3z M-166.2,508.9v-20.6h23.8v20.6h-2.8
	c-0.9-2.3-3.2-4-5.9-4s-4.9,1.6-5.9,4H-166.2z M-183.6,508.9v-9.5l6.3-6.3l9.5,0v15.1c-1.1-1.9-3.2-3.3-5.5-3.3
	c-2.7,0-4.9,1.6-5.9,4H-183.6z"/>
</svg>
