<?xml version="1.0" encoding="utf-8"?>
<!-- Generator: Adobe Illustrator 18.1.1, SVG Export Plug-In . SVG Version: 6.00 Build 0)  -->
<svg version="1.1" id="Layer_1" xmlns="http://www.w3.org/2000/svg" xmlns:xlink="http://www.w3.org/1999/xlink" x="0px" y="0px"
	 viewBox="-201 463 76 76" enable-background="new -201 463 76 76" xml:space="preserve">
<path fill="#00589F" d="M-157.8,520.5c0,1.5-1.2,2.7-2.7,2.7c-1.5,0-2.7-1.2-2.7-2.7l-0.8-8.6l-2.9-5.1l-0.5,5.4
	c-0.1,0.4-0.2,0.7-0.4,1l-0.4,0.9l-4.7,7.4c-0.8,1.2-2.5,1.6-3.7,0.8c-1.2-0.8-1.6-2.5-0.8-3.7l4.7-7.4l0,0l1.6-8.3l-0.1-1v-9.4
	c0-2.2,1.8-4,4-4c1.5,0,2.9,0.9,3.5,2.1l4.7,4.5l6,1.5c1.1,0.3,1.7,1.4,1.5,2.4c-0.3,1.1-1.4,1.7-2.4,1.5l-6.1-1.5
	c-0.4-0.1-0.7-0.3-0.9-0.5c-0.3-0.1-0.6-0.2-0.8-0.5l-1.4-1.3v5.2l-0.1,0.8l4.2,6.9c0.4,0.6,0.6,1.3,0.4,2L-157.8,520.5z
	 M-168.5,479.2c2.2,0,4,1.8,4,4s-1.8,4-4,4c-2.2,0-4-1.8-4-4S-170.7,479.2-168.5,479.2z M-148.2,499l5.1,9.4l-5.9,3.2l-5.1-9.4
	L-148.2,499z M-150.1,512.3c-1.3,0.7-2.9,0.2-3.6-1.1l-2.5-4.7c-0.7-1.3-0.2-2.9,1.1-3.6L-150.1,512.3z M-147,498.4
	c1.3-0.7,2.9-0.2,3.6,1.1l2.5,4.7c0.7,1.3,0.2,2.9-1.1,3.6L-147,498.4z"/>
</svg>
