<?xml version="1.0" encoding="utf-8"?>
<!-- Generator: Adobe Illustrator 18.1.1, SVG Export Plug-In . SVG Version: 6.00 Build 0)  -->
<svg version="1.1" id="Layer_1" xmlns="http://www.w3.org/2000/svg" xmlns:xlink="http://www.w3.org/1999/xlink" x="0px" y="0px"
	 viewBox="0 396.9 480 183.8" enable-background="new 0 396.9 480 183.8" xml:space="preserve">
<g>
	<path fill="#005EA5" d="M157.1,476.7h18.2c4.7-23.6,22-42.7,44.7-50l-2.2-18C186.2,417.3,162.2,444,157.1,476.7z"/>
	<path fill="#005EA5" d="M260.4,408.2l-2.2,18c23.6,6.7,41.8,26.2,46.7,50.7h18.2C318,443.1,292.9,416.2,260.4,408.2z"/>
	<path fill="#005EA5" d="M240,441.3c-22.2,0-40.9,15.1-46.4,35.3h2.9c5.8-18.7,23.1-32.4,43.6-32.4s38,13.8,43.3,32.4h2.9
		C280.9,456.4,262.2,441.3,240,441.3z"/>
</g>
<polygon fill="#005EA5" points="221.3,396.9 256.7,396.9 252.4,433.3 225.8,433.3 "/>
<g>
	<path fill="#005EA5" d="M23.1,576.2v-1.1c2.4-0.2,2.7-0.4,2.7-3.6v-12.9h-0.2L18.2,576h-1.1l-6.7-16.9h-0.2l-0.4,8.7
		c-0.2,2.7-0.2,4.2,0,5.3c0.2,1.6,0.9,1.8,2.9,2v1.1H4.9v-1.1c1.8-0.2,2.4-0.7,2.7-2c0.2-1.1,0.4-2.9,0.7-6.2l0.4-6.7
		c0.2-3.8,0-4.2-2.9-4.4v-1.1h6.9l6.4,14.4l6.4-14.4h6.7v1.1c-2.7,0.2-2.9,0.4-2.7,3.3l0.2,12.4c0,3.1,0.2,3.3,2.9,3.6v1.1H23.1z"/>
	<path fill="#005EA5" d="M58.2,556c-1.8,0-2.7,0.9-2.9,2c-0.2,1.1-0.2,2.2-0.2,4.7v3.6c0,3.6-0.4,6.2-2.4,8.2
		c-1.6,1.6-3.8,2.4-6.2,2.4c-2.2,0-4.2-0.4-5.8-1.8c-2-1.6-2.7-4-2.7-7.8v-7.8c0-3.1-0.2-3.3-2.9-3.6v-1.1h10v1.1
		c-2.4,0.2-2.7,0.4-2.7,3.6v7.1c0,4.9,1.8,7.8,5.3,7.8c4,0,5.8-2.9,5.8-8.4v-3.6c0-2.4-0.2-3.6-0.2-4.7c-0.2-1.1-0.9-1.8-3.3-2v-1.1
		h8.4v1.3H58.2z"/>
	<path fill="#005EA5" d="M80.4,576.7c-0.2,0-0.7,0-0.9,0c-4.2-0.2-5.6-1.1-6.9-3.3c-0.9-1.3-1.8-3.1-2.7-4.9
		c-0.4-1.1-1.1-1.3-2.2-1.6h-0.7v4.9c0,2.7,0.2,3.1,2.9,3.3v1.1H60v-1.1c2.4-0.2,2.9-0.7,2.9-3.3v-12.7c0-2.7-0.2-2.9-2.7-3.1v-1.1
		h9.3c2.9,0,4.7,0.4,6,1.3c1.3,0.9,2.2,2.4,2.2,4.4c0,2.9-2,4.4-4.2,5.3c0.4,0.9,1.8,3.1,2.7,4.7c1.1,1.8,2,2.9,2.7,3.6
		c0.7,0.7,1.3,1.1,2,1.3L80.4,576.7z M68,565.8c1.3,0,2.4-0.2,3.3-0.9c1.1-0.9,1.6-2.2,1.6-4c0-3.6-2-4.9-4-4.9
		c-0.9,0-1.3,0.2-1.6,0.2c-0.2,0.2-0.2,0.4-0.2,1.3v8H68V565.8z"/>
	<path fill="#005EA5" d="M91.6,554.7c2.7,0,4.4,0.4,5.8,1.3c1.6,1.1,2.4,2.7,2.4,4.9c0,4.4-3.3,6.4-6.7,6.9c-0.4,0-1.1,0-1.3,0
		l-2.2-0.4v4.4c0,2.9,0.2,3.1,3.1,3.3v1.1H82.2v-1.1c2.4-0.2,2.9-0.4,2.9-3.3v-12.7c0-2.9-0.2-3.1-2.7-3.3v-1.1H91.6z M89.3,566
		c0.4,0.2,1.1,0.2,1.8,0.2c1.3,0,3.8-0.9,3.8-5.3c0-3.8-2.2-4.9-4.2-4.9c-0.7,0-1.1,0.2-1.3,0.2c-0.2,0.2-0.2,0.4-0.2,1.1v8.7H89.3z
		"/>
	<path fill="#005EA5" d="M125.8,556c-2.7,0.2-2.9,0.4-2.9,3.3v12.9c0,2.9,0.2,2.9,2.9,3.1v1.1h-10.2v-1.1c2.7-0.2,2.9-0.4,2.9-3.3
		v-6.2h-9.1v6.2c0,2.9,0.2,3.1,2.7,3.3v1.1h-9.8v-1.1c2.4-0.2,2.7-0.4,2.7-3.3v-12.7c0-2.9-0.2-3.1-2.9-3.3v-1.1h10v1.1
		c-2.4,0.2-2.7,0.4-2.7,3.3v4.9h9.1v-4.9c0-2.9-0.2-3.1-2.7-3.3v-1.1h10V556z"/>
	<path fill="#005EA5" d="M148.7,556c-2.2,0.2-2.9,0.9-4,2.9c-1.3,2-2,3.3-3.8,6.4c-0.4,0.9-0.7,1.3-0.7,2.2v4.2
		c0,2.9,0.2,3.1,3.1,3.6v1.1h-10.9v-1.1c2.9-0.2,3.1-0.4,3.1-3.6V568c0-0.9-0.2-1.1-0.4-1.8c-0.9-1.8-2.2-4-4.2-7.6
		c-1.3-2.2-1.8-2.7-3.6-2.9v-1.1h9.6v1.1c-2.2,0.2-2.2,0.7-1.6,2c1.1,2.2,2.4,4.7,3.8,7.1c0.9-2,2.7-5.1,3.6-7.1
		c0.4-1.3,0.4-1.8-2-2v-1.1h7.8v1.3H148.7z"/>
	<path fill="#005EA5" d="M181.3,563.3c-2,0.2-2.7,0.7-4,2.2c-0.9,1.1-1.8,2.4-2.9,3.8c2.2,2,4.2,4.7,5.8,6.9l-0.2,0.4
		c-3.3,0-5.3-0.7-5.8-1.1c-0.4-0.4-1.3-1.6-2.7-2.7c-2,2.7-4.2,4-6.4,4c-4.4,0-6.9-3.3-6.9-6.2c0-2.9,1.8-4,4.7-6
		c-1.3-1.3-2.2-2.7-2.2-4.7c0-2.9,2.7-5.6,6-5.6s5.6,2,5.6,4.9c0,1.1-0.4,2-1.3,2.7c-0.7,0.7-1.6,1.3-2.7,2c0.9,0.9,2.9,2.4,5.1,4.7
		c0.7-0.9,1.1-1.8,1.6-2.9c0.7-1.6,0.4-2-1.8-2.2v-1.3h7.8v1.1H181.3z M166.9,573.8c1.6,0,3.1-0.9,4-2c-2.4-2.4-4.2-4-6.9-6.4
		c-0.9,0.9-1.3,2.4-1.3,3.6C162.4,572.2,164.7,573.8,166.9,573.8L166.9,573.8z M166.4,555.6c-1.3,0-2.2,1.3-2.2,2.9s0.9,2.7,3.1,4.4
		c0.9-0.7,1.6-2,1.6-4C169.1,557.1,168.2,555.6,166.4,555.6L166.4,555.6z"/>
	<path fill="#005EA5" d="M213.8,567.1c-1.6,0.2-1.8,0.4-1.8,2.7v2.7c0,1.1,0,2.2,0.2,3.1c-2,0.4-4.9,1.3-7.6,1.3
		c-7.8,0-12.7-4.4-12.7-11.1c0-7.6,6.2-11.6,13.1-11.6c2.7,0,5.3,0.7,6.4,0.9c0,1.1,0.2,2.9,0.4,5.6l-1.3,0.2
		c-0.7-3.8-3.1-5.3-6.2-5.3c-4,0-7.3,3.6-7.3,9.6c0,5.1,2.4,10.2,8,10.2c0.7,0,1.3,0,1.8-0.4c0.4-0.2,0.7-0.9,0.7-1.8V570
		c0-2.2-0.2-2.7-3.6-2.9V566h10v1.1H213.8z"/>
	<path fill="#005EA5" d="M236.7,576.7c-0.2,0-0.7,0-0.9,0c-4.2-0.2-5.6-1.1-6.9-3.3c-0.9-1.3-1.8-3.1-2.7-4.9
		c-0.4-1.1-1.1-1.3-2.2-1.6h-0.7v4.9c0,2.7,0.2,3.1,2.9,3.3v1.1h-10v-1.1c2.4-0.2,2.9-0.7,2.9-3.3v-12.7c0-2.7-0.2-2.9-2.7-3.1v-1.1
		h9.3c2.9,0,4.7,0.4,6,1.3c1.3,0.9,2.2,2.4,2.2,4.4c0,2.9-2,4.4-4.2,5.3c0.4,0.9,1.8,3.1,2.7,4.7c1.1,1.8,2,2.9,2.7,3.6
		c0.7,0.7,1.3,1.1,2,1.3L236.7,576.7z M224.2,565.8c1.3,0,2.4-0.2,3.3-0.9c1.1-0.9,1.6-2.2,1.6-4c0-3.6-2-4.9-4-4.9
		c-0.9,0-1.3,0.2-1.6,0.2c-0.2,0.2-0.2,0.4-0.2,1.3v8h0.9V565.8z"/>
	<path fill="#005EA5" d="M250.9,576.2v-1.1c2-0.2,2.2-0.7,1.6-2.2c-0.2-0.9-0.9-2.4-1.3-3.8h-6.4c-0.4,1.1-0.9,2.2-1.1,3.6
		c-0.4,1.6-0.4,2,2,2.4v1.1h-7.3v-1.1c2.2-0.2,2.7-0.7,3.8-3.3l6.9-17.1l1.8-0.4c2.2,5.8,4.2,11.6,6.4,17.3c1.1,2.9,1.6,3.3,3.6,3.6
		v1.1H250.9L250.9,576.2z M248,560.2L248,560.2c-1.1,2.4-1.8,4.9-2.7,7.1h5.1L248,560.2z"/>
	<path fill="#005EA5" d="M285.3,556c-1.8,0-2.4,0.4-2.7,2c0,1.1-0.2,2.7-0.2,5.6v13.1h-1.6l-13.8-16.4l0,0v7.6
		c0,2.9,0.2,4.4,0.2,5.3c0.2,1.6,0.7,2,3.1,2.2v1.1h-8.2v-1.1c1.8-0.2,2.7-0.7,2.7-2c0.2-1.1,0.2-2.7,0.2-5.6v-6.9
		c0-2.2,0-2.9-0.7-3.6c-0.7-0.9-1.3-1.1-2.7-1.1v-1.1h6.2l12.7,14.7h0.2V564c0-2.9-0.2-4.4-0.2-5.6c-0.2-1.3-0.9-2-3.3-2.2v-1.1h8
		V556z"/>
	<path fill="#005EA5" d="M305.6,560.4c-0.4-1.8-0.9-2.9-1.6-3.3c-0.7-0.7-1.3-0.9-3.3-0.9h-1.6V572c0,2.9,0.2,3.1,3.3,3.3v1.1h-10.9
		v-1.1c2.9-0.2,3.1-0.4,3.1-3.3v-15.8h-1.1c-2.7,0-3.3,0.4-3.8,0.9c-0.4,0.7-0.9,1.8-1.3,3.3h-1.1c0.2-2.4,0.2-4.9,0.4-6.4h0.9
		c0.4,0.7,0.9,0.9,2,0.9H304c0.9,0,1.3-0.2,2-0.9h0.9c0,1.3,0.2,4.2,0.4,6.4H305.6z"/>
	<path fill="#005EA5" d="M326,570.7c-0.2,1.3-0.9,4.7-1.3,5.6h-16.2v-1.1c2.9-0.2,3.1-0.4,3.1-3.3v-12.7c0-2.9-0.2-3.1-2.9-3.3v-1.1
		h10.2v1.1c-2.4,0.2-2.9,0.4-2.9,3.3V572c0,1.6,0.2,2.2,0.9,2.4c0.7,0.2,1.6,0.2,2.4,0.2c1.3,0,2.7-0.2,3.3-1.1
		c0.7-0.7,1.3-1.8,1.8-3.3L326,570.7z"/>
	<path fill="#005EA5" d="M340.7,576.2v-1.1c2-0.2,2.2-0.7,1.6-2.2c-0.2-0.9-0.9-2.4-1.3-3.8h-6.4c-0.4,1.1-0.9,2.2-1.1,3.6
		c-0.4,1.6-0.4,2,2,2.4v1.1H328v-1.1c2.2-0.2,2.7-0.7,3.8-3.3l6.9-17.1l1.8-0.4c2.2,5.8,4.2,11.6,6.4,17.3c1.1,2.9,1.6,3.3,3.6,3.6
		v1.1H340.7L340.7,576.2z M337.8,560.2L337.8,560.2c-1.1,2.4-1.8,4.9-2.7,7.1h5.1L337.8,560.2z"/>
	<path fill="#005EA5" d="M375.1,556c-1.8,0-2.4,0.4-2.7,2c0,1.1-0.2,2.7-0.2,5.6v13.1h-1.6l-13.8-16.4l0,0v7.6
		c0,2.9,0.2,4.4,0.2,5.3c0.2,1.6,0.7,2,3.1,2.2v1.1H352v-1.1c1.8-0.2,2.7-0.7,2.7-2c0.2-1.1,0.2-2.7,0.2-5.6v-6.9
		c0-2.2,0-2.9-0.7-3.6c-0.7-0.9-1.3-1.1-2.7-1.1v-1.1h6.2l12.7,14.7h0.2V564c0-2.9-0.2-4.4-0.2-5.6c-0.2-1.3-0.9-2-3.3-2.2v-1.1h8
		L375.1,556L375.1,556z"/>
	<path fill="#005EA5" d="M387.3,554.7c4.2,0,7.3,0.9,9.6,2.9c1.6,1.6,2.9,4,2.9,7.1c0,4-1.6,6.9-4.2,8.9c-2.4,1.8-6,2.7-10,2.7h-8.4
		v-1.1c2.7-0.2,2.9-0.4,2.9-3.3v-12.7c0-2.9-0.2-3.1-2.7-3.3v-1.1H387.3z M384.4,571.6c0,2.4,0.4,3.3,2.9,3.3c4.4,0,7.6-3.6,7.6-9.6
		c0-3.1-0.9-5.8-2.4-7.1c-1.3-1.3-3.1-2-5.3-2c-1.1,0-2,0.2-2,0.4c-0.2,0.2-0.4,0.9-0.4,1.8v13.1H384.4z"/>
	<path fill="#005EA5" d="M403.8,570.9c1.6,0,3.8,1.6,3.8,4.2c0,3.1-2.9,4.9-5.6,5.6l-0.4-1.1c2-0.9,2.9-1.8,2.9-3.1
		c0-1.1-0.9-2.2-2.4-2.4c-0.2,0-0.4-0.4-0.4-1.1C401.6,571.6,402.7,570.9,403.8,570.9L403.8,570.9z"/>
	<path fill="#005EA5" d="M427.3,554.7c2.7,0,4.4,0.4,5.8,1.3c1.6,1.1,2.4,2.7,2.4,4.9c0,4.4-3.3,6.4-6.7,6.9c-0.4,0-1.1,0-1.3,0
		l-2.2-0.4v4.4c0,2.9,0.2,3.1,3.1,3.3v1.1h-10.2v-1.1c2.4-0.2,2.9-0.4,2.9-3.3v-12.7c0-2.9-0.2-3.1-2.7-3.3v-1.1H427.3z M425.1,566
		c0.4,0.2,1.1,0.2,1.8,0.2c1.3,0,3.8-0.9,3.8-5.3c0-3.8-2.2-4.9-4.2-4.9c-0.7,0-1.1,0.2-1.3,0.2c-0.2,0.2-0.2,0.4-0.2,1.1v8.7H425.1
		z"/>
	<path fill="#005EA5" d="M436,576.7c-1.3,0-2.4-1.1-2.4-2.4c0-1.6,1.1-2.4,2.4-2.4s2.4,1.1,2.4,2.4
		C438.7,575.8,437.6,576.7,436,576.7L436,576.7z"/>
	<path fill="#005EA5" d="M454,576.2v-1.1c2-0.2,2.2-0.7,1.6-2.2c-0.2-0.9-0.9-2.4-1.3-3.8h-6.4c-0.4,1.1-0.9,2.2-1.1,3.6
		c-0.4,1.6-0.4,2,2,2.4v1.1h-7.3v-1.1c2.2-0.2,2.7-0.7,3.8-3.3l6.9-17.1l1.8-0.4c2.2,5.8,4.2,11.6,6.4,17.3c1.1,2.9,1.6,3.3,3.6,3.6
		v1.1H454L454,576.2z M451.1,560.2L451.1,560.2c-1.1,2.4-1.8,4.9-2.7,7.1h5.1L451.1,560.2z"/>
	<path fill="#005EA5" d="M468.7,576.7c-1.3,0-2.4-1.1-2.4-2.4c0-1.6,1.1-2.4,2.4-2.4s2.4,1.1,2.4,2.4
		C471.1,575.8,470.2,576.7,468.7,576.7L468.7,576.7z"/>
</g>
<g>
	<path fill="#005EA5" d="M182.9,536.9v-2.7c6-0.4,6.4-1.1,6.4-8.7l-0.2-30.7h-0.2l-18,41.6h-2l-16.4-40.7h-0.2l-1.1,20.9
		c-0.2,6.4-0.2,10,0,12.9c0.2,3.6,1.8,4.2,7.1,4.7v2.7h-18.7v-2.7c4.4-0.4,6-1.6,6.4-4.7c0.4-2.4,1.1-6.2,1.6-14.4l1.1-15.8
		c0.7-9.3,0-10.2-6.7-10.9V486h14.9l16.2,36l16.4-36h14.9v2.4c-6.4,0.7-6.9,1.1-6.7,8.2l0.9,28.9c0.2,7.6,0.4,8,6.9,8.7v2.7H182.9
		L182.9,536.9z"/>
	<path fill="#005EA5" d="M275.6,506c-5.1,0.4-6.4,1.8-9.3,5.3c-2.2,2.9-4.2,6-6.7,9.6c4.4,4.2,10,10.9,13.1,16.2l-0.4,0.9
		c-6.4-0.2-11.1-2-12-2.9c-1.1-1.1-3.8-4-6.4-6.9c-5.1,6.9-10.2,9.8-15.6,9.8c-10.2,0-16-7.6-16-14.4c0-6.9,4.4-9.8,11.3-14.4
		c-3.3-3.1-5.3-6.7-5.3-11.1c0-7.1,6.4-12.9,13.8-12.9c7.3,0,12.7,4.7,12.7,11.1c0,2.9-1.3,5.1-3.3,6.7c-1.6,1.3-3.8,2.9-6.4,4.7
		c2.4,2,7.3,6.2,12.7,11.3c1.6-2.4,2.9-4.7,4.2-7.6c1.6-3.6,0.9-4.7-4.4-5.3v-2.4h18.2V506L275.6,506z M241.6,531.3
		c4,0,8.2-2.7,10.2-5.6c-5.1-5.3-9.6-9.3-16.2-15.1c-3.1,2.9-4.7,6.2-4.7,9.6C231.1,528,236.4,531.3,241.6,531.3L241.6,531.3z
		 M241.1,488c-3.1,0-5.6,3.1-5.6,7.3c0,4,2.2,6.7,7.3,10.7c2.7-2,4.7-5.1,4.7-9.8C247.3,491.8,245.1,488,241.1,488L241.1,488z"/>
	<path fill="#005EA5" d="M339.1,515.3c-4.2,0.7-4.7,1.1-4.7,6v6.4c0,2.9,0,5.3,0.4,7.3c-4.7,1.1-11.6,2.9-17.8,2.9
		c-17.8,0-29.3-10.4-29.3-26c0-18,14.4-27.1,30.7-27.1c6.4,0,12.4,1.6,15.1,2.2c0.2,2.7,0.7,6.9,1.3,12.7l-2.7,0.4
		c-2-9.1-7.8-12.4-15.1-12.4c-10.2,0-18.7,8.7-18.7,22.9c0,11.6,6,24.2,19.8,24.2c2,0,4-0.2,5.3-1.1c1.3-0.9,2-2,2-4.7v-6.9
		c0-5.6-0.4-6-8.4-6.9v-2.4h22.2v2.4H339.1z"/>
</g>
</svg>
